<svg xmlns="http://www.w3.org/2000/svg" viewBox="0 0 512 512" id="substitution-board"><rect width="435" height="350" x="38.5" y="81" fill="#654b37" rx="60"></rect><path fill="#c8ad92" d="M473.5 273.53h13.57A16.43 16.43 0 0 1 503.5 290v52.1a16.43 16.43 0 0 1-16.43 16.43H473.5v-85zm-435 84.34H24.93A16.44 16.44 0 0 1 8.5 341.43V289.3a16.43 16.43 0 0 1 16.43-16.43H38.5z"></path><path fill="none" d="M143.5 201.2v-60M188.5 201.2v-60"></path><path fill="#e0ccbf" d="M256 401h157.69a29.81 29.81 0 0 0 29.81-29.81V140.81A29.81 29.81 0 0 0 413.69 111H98.31a29.81 29.81 0 0 0-29.81 29.81v230.38A29.81 29.81 0 0 0 98.31 401H256Z"></path><path fill="#654b37" d="M443.5 238.7h-375v-15h375v15z"></path><path fill="#654b37" d="M256 401V231.2a7.5 7.5 0 0 0-15 0V401Z"></path><path fill="#e3232e" d="M113.5 208.7a7.5 7.5 0 0 1-7.5-7.5v-60a7.5 7.5 0 0 1 15 0v60a7.5 7.5 0 0 1-7.5 7.5Z"></path><path fill="#25b378" d="M402.25 208.7a7.5 7.5 0 0 1-7.5-7.5v-60a7.5 7.5 0 0 1 7.5-7.5h15a7.5 7.5 0 0 1 0 15h-7.5v52.5a7.5 7.5 0 0 1-7.5 7.5zm-105 0h-30a7.5 7.5 0 0 1-7.5-7.5v-60a7.5 7.5 0 0 1 7.5-7.5h30a7.5 7.5 0 0 1 7.5 7.5v60a7.5 7.5 0 0 1-7.5 7.5zm-22.5-15h15v-45h-15zm82.5 15h-30a7.5 7.5 0 0 1-7.5-7.5v-60a7.5 7.5 0 0 1 15 0v52.5h15v-52.5a7.5 7.5 0 0 1 15 0v60a7.5 7.5 0 0 1-7.5 7.5z"></path><path fill="#25b378" d="M402.25 208.7a7.5 7.5 0 0 1-7.5-7.5v-52.5h-7.5a7.5 7.5 0 0 1 0-15h15a7.5 7.5 0 0 1 7.5 7.5v60a7.5 7.5 0 0 1-7.5 7.5Z"></path><path fill="#e3232e" d="M143.5 208.7a7.5 7.5 0 0 1-7.5-7.5v-60a7.5 7.5 0 0 1 15 0v60a7.5 7.5 0 0 1-7.5 7.5Z"></path><path fill="#e3232e" d="M188.51 208.7a7.5 7.5 0 0 1-6-3l-45-60a7.5 7.5 0 1 1 12-9l45 60a7.5 7.5 0 0 1-6 12Z"></path><path fill="#e3232e" d="M188.5 208.7a7.5 7.5 0 0 1-7.5-7.5v-60a7.5 7.5 0 0 1 15 0v60a7.5 7.5 0 0 1-7.5 7.5zM144 311.74a7.5 7.5 0 0 1-7.5-7.5V273.6h-20v30.64a7.5 7.5 0 0 1-15 0V266.1a7.5 7.5 0 0 1 7.5-7.5h35a7.5 7.5 0 0 1 7.5 7.5v38.14a7.5 7.5 0 0 1-7.5 7.5zm0 61.86h-35a7.5 7.5 0 0 1-7.5-7.5V328a7.5 7.5 0 0 1 15 0v30.6h20V328a7.5 7.5 0 0 1 15 0v38.1a7.5 7.5 0 0 1-7.5 7.5zm65-61.86a7.5 7.5 0 0 1-7.5-7.5V273.6h-20v30.64a7.5 7.5 0 0 1-15 0V266.1a7.5 7.5 0 0 1 7.5-7.5h35a7.5 7.5 0 0 1 7.5 7.5v38.14a7.5 7.5 0 0 1-7.5 7.5zm0 61.86h-35a7.5 7.5 0 0 1-7.5-7.5V328a7.5 7.5 0 0 1 15 0v30.6h20V328a7.5 7.5 0 0 1 15 0v38.1a7.5 7.5 0 0 1-7.5 7.5z"></path><path fill="#e3232e" d="M194 323.6h-5a7.5 7.5 0 0 1 0-15h5a7.5 7.5 0 1 1 0 15Z"></path><path fill="#25b378" d="M368 311.74a7.5 7.5 0 0 1-7.5-7.5V266.1a7.5 7.5 0 0 1 7.5-7.5h35a7.5 7.5 0 1 1 0 15h-27.5v30.64a7.5 7.5 0 0 1-7.5 7.5zm35 61.86h-35a7.5 7.5 0 0 1-7.5-7.5V328a7.5 7.5 0 0 1 15 0v30.6h20V328a7.5 7.5 0 0 1 15 0v38.1a7.5 7.5 0 0 1-7.5 7.5z"></path><path fill="#25b378" d="M388 323.6h-5a7.5 7.5 0 0 1 0-15h5a7.5 7.5 0 1 1 0 15zm-50-11.86a7.5 7.5 0 0 1-7.5-7.5V273.6h-20v30.64a7.5 7.5 0 0 1-15 0V266.1a7.5 7.5 0 0 1 7.5-7.5h35a7.5 7.5 0 0 1 7.5 7.5v38.14a7.5 7.5 0 0 1-7.5 7.5zm0 61.86h-35a7.5 7.5 0 0 1-7.5-7.5V328a7.5 7.5 0 0 1 15 0v30.6h20V328a7.5 7.5 0 0 1 15 0v38.1a7.5 7.5 0 0 1-7.5 7.5z"></path><path d="M383 308.6a7.5 7.5 0 0 0 0 15h5a7.5 7.5 0 1 0 0-15Zm-15 65h35a7.5 7.5 0 0 0 7.5-7.5V328a7.5 7.5 0 0 0-15 0v30.6h-20V328a7.5 7.5 0 0 0-15 0v38.1a7.5 7.5 0 0 0 7.5 7.5Zm0-61.86a7.5 7.5 0 0 0 7.5-7.5V273.6H403a7.5 7.5 0 1 0 0-15h-35a7.5 7.5 0 0 0-7.5 7.5v38.14a7.5 7.5 0 0 0 7.5 7.5Zm-194.08 0a7.5 7.5 0 0 0 7.5-7.5V273.6h20v30.64a7.5 7.5 0 0 0 15 0V266.1a7.5 7.5 0 0 0-7.5-7.5H174a7.5 7.5 0 0 0-7.5 7.5v38.14a7.5 7.5 0 0 0 7.5 7.5Zm15-3.14a7.5 7.5 0 0 0 0 15h5a7.5 7.5 0 1 0 0-15Zm-80 3.14a7.5 7.5 0 0 0 7.5-7.5V273.6h20v30.64a7.5 7.5 0 0 0 15 0V266.1a7.5 7.5 0 0 0-7.5-7.5H109a7.5 7.5 0 0 0-7.5 7.5v38.14a7.5 7.5 0 0 0 7.5 7.5Zm65 61.86h35a7.5 7.5 0 0 0 7.5-7.5V328a7.5 7.5 0 0 0-15 0v30.6h-20V328a7.5 7.5 0 0 0-15 0v38.1a7.5 7.5 0 0 0 7.58 7.5Zm-65 0h35a7.5 7.5 0 0 0 7.5-7.5V328a7.5 7.5 0 0 0-15 0v30.6h-20V328a7.5 7.5 0 0 0-15 0v38.1a7.5 7.5 0 0 0 7.58 7.5ZM303 311.74a7.5 7.5 0 0 0 7.5-7.5V273.6h20v30.64a7.5 7.5 0 0 0 15 0V266.1a7.5 7.5 0 0 0-7.5-7.5h-35a7.5 7.5 0 0 0-7.5 7.5v38.14a7.5 7.5 0 0 0 7.5 7.5Zm54.21-178a7.5 7.5 0 0 0-7.5 7.5v52.5h-15V141.2a7.5 7.5 0 0 0-15 0v60a7.5 7.5 0 0 0 7.5 7.5h30a7.5 7.5 0 0 0 7.5-7.5v-60a7.5 7.5 0 0 0-7.46-7.5Zm60 0h-30a7.5 7.5 0 0 0 0 15h7.5v52.5a7.5 7.5 0 1 0 15 0V148.7h7.5a7.5 7.5 0 0 0 0-15ZM487.07 266H481V141a67.58 67.58 0 0 0-67.5-67.5h-315A67.58 67.58 0 0 0 31 141v124.37h-6.07A24 24 0 0 0 1 289.3v52.13a24 24 0 0 0 23.93 23.94H31V371a67.58 67.58 0 0 0 67.5 67.5h315A67.58 67.58 0 0 0 481 371v-5h6.07A24 24 0 0 0 511 342.1V290a24 24 0 0 0-23.93-24ZM31 350.37h-6.07a9 9 0 0 1-8.93-8.94V289.3a8.94 8.94 0 0 1 8.93-8.93H31ZM466 371a52.56 52.56 0 0 1-52.5 52.5h-315A52.56 52.56 0 0 1 46 371V141a52.56 52.56 0 0 1 52.5-52.5h315A52.56 52.56 0 0 1 466 141Zm30-28.9a9 9 0 0 1-8.93 8.93H481V281h6.07a9 9 0 0 1 8.93 9Zm-82.31-238.6H98.31A37.36 37.36 0 0 0 61 140.81v230.38a37.36 37.36 0 0 0 37.31 37.31h315.38A37.36 37.36 0 0 0 451 371.19V140.81a37.36 37.36 0 0 0-37.31-37.31ZM241 393.5H98.31A22.34 22.34 0 0 1 76 371.19V238.7h165Zm195-22.31a22.34 22.34 0 0 1-22.31 22.31H256V238.7h180Zm0-147.49H76v-82.89a22.34 22.34 0 0 1 22.31-22.31h315.38A22.34 22.34 0 0 1 436 140.81Zm-138.75-90h-30a7.5 7.5 0 0 0-7.5 7.5v60a7.5 7.5 0 0 0 7.5 7.5h30a7.5 7.5 0 0 0 7.5-7.5v-60a7.5 7.5 0 0 0-7.5-7.5Zm-7.5 60h-15v-45h15Zm-176.25-60a7.5 7.5 0 0 0-7.5 7.5v60a7.5 7.5 0 0 0 15 0v-60a7.5 7.5 0 0 0-7.5-7.5ZM303 373.6h35a7.5 7.5 0 0 0 7.5-7.5V328a7.5 7.5 0 0 0-15 0v30.6h-20V328a7.5 7.5 0 0 0-15 0v38.1a7.5 7.5 0 0 0 7.5 7.5ZM188.5 133.7a7.5 7.5 0 0 0-7.5 7.5v37.5l-31.5-42-.1-.12a4 4 0 0 0-.26-.32l-.24-.26a3.07 3.07 0 0 0-.26-.25l-.28-.26-.26-.21-.32-.24-.28-.18-.33-.2-.33-.17-.31-.15-.38-.15-.28-.11-.41-.12-.3-.07-.4-.08-.33-.05H142.57l-.38.06-.35.07-.35.09-.37.11a2.08 2.08 0 0 0-.32.12 2.87 2.87 0 0 0-.37.15l-.29.14-.38.2-.26.16-.37.25a1 1 0 0 0-.13.09l-.12.1-.32.26-.26.24-.25.26a3.45 3.45 0 0 0-.26.28l-.21.26-.24.32-.18.28-.2.33c-.06.1-.11.21-.17.32l-.15.31-.15.38c0 .1-.07.19-.1.29a3.17 3.17 0 0 0-.12.41c0 .1-.06.2-.08.3s-.05.26-.08.39 0 .23-.05.35 0 .23 0 .36v60.56a7.5 7.5 0 0 0 15 0v-37.5l31.5 42a.39.39 0 0 1 .08.1c.13.15.25.3.39.45l.17.19c.18.18.36.35.56.52l.16.13.52.37.25.15c.15.09.3.18.46.26l.26.13.5.21.24.09.57.16h.21c.21.05.43.09.65.12h.16a7.37 7.37 0 0 0 .82 0 8.76 8.76 0 0 0 1-.08h.24a8.72 8.72 0 0 0 1-.24l.12-.05a7.75 7.75 0 0 0 .94-.39l.13-.07a7.56 7.56 0 0 0 .93-.58l.08-.05.12-.1.32-.27.26-.23.25-.26a3.58 3.58 0 0 0 .26-.29l.21-.26.24-.31.18-.29c.07-.1.13-.21.2-.32l.17-.33.15-.31.15-.38c0-.09.07-.19.1-.29a3 3 0 0 0 .12-.4c0-.1.06-.2.08-.3s.05-.26.08-.4 0-.23.05-.34v-60.92a7.5 7.5 0 0 0-7.44-7.42Z" fill="#000000"></path></svg>